<svg width="165" height="51" viewBox="0 0 165 51" fill="none" xmlns="http://www.w3.org/2000/svg">
<rect width="165" height="50.871" rx="8" fill="white"/>
<g clip-path="url(#clip0_2026_1103)">
<path d="M36.8873 22.9481C37.0113 22.4713 37.1359 21.9951 37.2585 21.5182C37.9735 18.7478 38.6865 15.976 39.4047 13.2062C39.588 12.499 39.7237 12.4012 40.4426 12.4012C40.834 12.4012 41.2254 12.3979 41.6161 12.4018C42.0042 12.4057 42.1458 12.5564 42.0447 12.9328C41.8509 13.6543 41.6298 14.3686 41.408 15.0823C40.3988 18.3309 39.3845 21.5782 38.3727 24.8262C38.1392 25.5751 38.0191 25.6651 37.2422 25.6651C36.9056 25.6651 36.5683 25.6671 36.2317 25.6651C35.6264 25.6599 35.4391 25.5223 35.2963 24.9339C34.6002 22.0681 33.9101 19.2011 33.2173 16.3348C33.1462 16.0406 33.0738 15.7464 32.9511 15.4443C32.8265 15.9531 32.6993 16.4613 32.5786 16.9708C31.9596 19.5756 31.3418 22.1803 30.7234 24.7851C30.5434 25.5438 30.3881 25.6651 29.6046 25.6651C29.2896 25.6651 28.9745 25.6651 28.6588 25.6651C27.979 25.6638 27.8107 25.5373 27.6137 24.883C26.8453 22.3304 26.0762 19.7784 25.309 17.2252C24.8941 15.8455 24.4727 14.4678 24.0728 13.0835C23.9117 12.5258 24.0259 12.4005 24.6006 12.4005C24.992 12.4005 25.3834 12.4005 25.7741 12.4005C26.4206 12.4012 26.5798 12.5206 26.7481 13.1677C26.9718 14.0281 27.1838 14.8911 27.4024 15.7529C27.9908 18.0752 28.5792 20.3975 29.1682 22.7198C29.1761 22.7498 29.1878 22.7792 29.2002 22.8164C29.347 22.7237 29.3202 22.5613 29.3496 22.4361C30.0763 19.3655 30.7938 16.293 31.514 13.2212C31.683 12.501 31.8128 12.4005 32.563 12.4005C32.9107 12.4005 33.2584 12.3992 33.6061 12.4005C34.199 12.4031 34.3791 12.5408 34.5141 13.1142C34.9094 14.7926 35.3008 16.4718 35.6935 18.1502C36.0491 19.6702 36.4033 21.1901 36.7588 22.71C36.7771 22.7883 36.8038 22.8646 36.826 22.9416C36.8462 22.9436 36.8658 22.9449 36.886 22.9468L36.8873 22.9481Z" fill="#253140"/>
<path d="M32.2492 38.871C23.9085 38.7634 16.5684 36.0347 10.3059 30.4839C10.225 30.4128 10.1448 30.3359 10.0848 30.2478C9.97781 30.0906 9.96477 29.9177 10.0887 29.7631C10.2022 29.6216 10.3627 29.587 10.531 29.6437C10.653 29.6848 10.7711 29.7435 10.8826 29.8075C15.4777 32.4468 20.4035 34.1455 25.6248 35.0144C28.5929 35.5082 31.5819 35.7072 34.5846 35.5709C39.7041 35.338 44.6397 34.244 49.3796 32.2844C49.6079 32.1898 49.8258 32.0593 50.0887 32.0652C50.3985 32.0717 50.6399 32.1852 50.7638 32.4807C50.8878 32.7749 50.773 33.0176 50.5544 33.2081C50.1193 33.5878 49.6294 33.8937 49.1434 34.2003C46.2386 36.0314 43.076 37.2304 39.742 37.9989C37.2781 38.5664 34.7829 38.871 32.2486 38.871H32.2492Z" fill="#FE9902"/>
<path d="M20.1634 18.2311C20.1706 17.5357 20.1999 16.8514 20.089 16.173C19.879 14.8872 19.179 14.2747 17.8528 14.126C16.4274 13.9661 15.0973 14.3008 13.792 14.8155C13.6009 14.8912 13.4065 14.9616 13.2075 15.0125C12.9766 15.0719 12.8233 14.976 12.792 14.7313C12.7378 14.3093 12.7417 13.8846 12.8057 13.4651C12.8461 13.2003 13.0712 13.0764 13.2878 12.9733C14.5383 12.3771 15.8508 12.0339 17.2403 12.0098C17.9911 11.9967 18.738 12.0346 19.4712 12.2179C21.2084 12.6523 22.2359 13.773 22.519 15.5402C22.6018 16.0562 22.6357 16.5755 22.637 17.0967C22.6403 18.6069 22.6592 20.1177 22.6299 21.6278C22.6129 22.4896 22.7988 23.2782 23.2104 24.0297C23.4962 24.5516 23.4453 24.7049 22.9462 25.048C22.714 25.2079 22.4805 25.3664 22.2437 25.5203C21.8027 25.808 21.5522 25.7708 21.1928 25.3788C20.8203 24.973 20.5926 24.4792 20.3467 23.9925C20.2227 24.0128 20.1784 24.1211 20.1079 24.1948C18.6167 25.7539 16.7993 26.2927 14.7072 25.8543C13.0725 25.5112 12.0053 24.1661 11.895 22.4172C11.7469 20.0681 13.1573 18.3296 15.5409 17.9154C17.0609 17.6512 18.5462 17.8821 20.0257 18.2122C20.0662 18.2213 20.1086 18.2233 20.164 18.2305L20.1634 18.2311ZM17.5371 19.6154C17.3198 19.6154 17.1026 19.6082 16.886 19.618C16.7347 19.6252 16.5847 19.6532 16.4346 19.6767C14.7888 19.937 13.959 21.5665 14.7177 23.0564C14.9303 23.4739 15.2585 23.7551 15.7144 23.9058C16.4816 24.1602 17.2253 24.0206 17.9552 23.7877C19.0485 23.4394 19.8353 22.7701 20.0734 21.5893C20.1725 21.0975 20.1699 20.5978 20.1719 20.0981C20.1719 19.9696 20.1197 19.9533 20.0107 19.922C19.2018 19.6884 18.3714 19.6297 17.5371 19.6154Z" fill="#25313F"/>
<path d="M47.6046 26.0585C46.2692 26.0102 45.1831 25.8256 44.1368 25.4303C43.8921 25.3377 43.6592 25.2242 43.4414 25.0806C43.2404 24.9482 43.0976 24.761 43.0826 24.5249C43.0584 24.1576 43.0591 23.7864 43.08 23.4185C43.093 23.1882 43.2483 23.0858 43.489 23.1152C43.699 23.1406 43.8804 23.2365 44.0696 23.3161C45.5308 23.9338 47.0423 24.1732 48.6183 23.913C48.996 23.8503 49.3509 23.716 49.6712 23.5007C50.6764 22.8249 50.6503 21.423 49.6177 20.7902C48.981 20.4001 48.2569 20.2344 47.5589 20.0029C46.7787 19.7445 45.9744 19.5541 45.2405 19.1633C43.472 18.2213 42.7081 16.1697 43.5294 14.456C44.1355 13.1912 45.2099 12.4932 46.5413 12.1859C48.1917 11.805 49.7977 12.0294 51.3601 12.636C51.88 12.8383 52.2153 13.1807 52.1364 13.8005C52.1109 14.004 52.1416 14.2134 52.1285 14.4189C52.1103 14.7092 51.9557 14.8331 51.6719 14.7724C51.5049 14.7366 51.3457 14.6596 51.1866 14.5924C49.9243 14.0601 48.617 13.9087 47.266 14.1305C47.0188 14.171 46.7826 14.2506 46.5569 14.3589C45.4767 14.8762 45.3605 16.3185 46.3475 16.9989C47.0201 17.4627 47.8094 17.6473 48.5674 17.9036C49.2139 18.1222 49.8747 18.2957 50.5055 18.5599C51.85 19.1222 52.7391 20.0524 52.8474 21.5639C52.9661 23.2221 52.2564 24.4635 50.8356 25.2946C49.7716 25.9176 48.589 26.0546 47.6046 26.0565V26.0585Z" fill="#253140"/>
<path d="M80.5521 33.049C80.7981 31.848 81.0427 30.6529 81.2873 29.4578C81.4002 28.9053 81.5163 28.3541 81.6226 27.8003C81.6552 27.628 81.7113 27.5413 81.9142 27.5498C82.3591 27.5687 82.8053 27.5609 83.2509 27.553C83.4172 27.5504 83.4459 27.5883 83.3989 27.7559C82.7388 30.1252 82.0851 32.4971 81.4387 34.8703C81.3943 35.0327 81.3284 35.0738 81.1738 35.0706C80.7283 35.0621 80.2821 35.0542 79.8372 35.0732C79.6232 35.0823 79.5665 34.9981 79.5247 34.8083C79.1848 33.2623 78.8339 31.7188 78.4868 30.1748C78.4712 30.1037 78.4842 30.0182 78.3714 29.9758C78.0817 31.3098 77.7934 32.6399 77.5051 33.9701C77.4385 34.2773 77.3668 34.5839 77.3094 34.8931C77.2846 35.0262 77.2252 35.0712 77.0915 35.0699C76.6133 35.0634 76.1352 35.0575 75.657 35.0719C75.445 35.0784 75.4476 34.9362 75.4111 34.8037C74.9342 33.0803 74.4574 31.3575 73.9792 29.6346C73.8083 29.0182 73.638 28.4017 73.4599 27.7879C73.4104 27.6157 73.4241 27.5426 73.6354 27.5498C74.0803 27.5661 74.5272 27.5713 74.9714 27.5478C75.1952 27.5361 75.2454 27.6437 75.2806 27.8179C75.61 29.4324 75.9421 31.0469 76.2754 32.6615C76.3002 32.7828 76.3374 32.9015 76.3746 33.0418C76.4959 32.9622 76.4842 32.8526 76.5018 32.7698C76.841 31.2015 77.1802 29.6333 77.5038 28.0612C77.5566 27.8042 77.644 27.6952 77.9232 27.72C78.2572 27.7494 78.5997 27.7572 78.9324 27.7187C79.2651 27.6796 79.3434 27.8322 79.4027 28.1147C79.7354 29.6842 80.0857 31.2505 80.4315 32.8174C80.4491 32.8957 80.4243 32.9974 80.5515 33.0483L80.5521 33.049Z" fill="#263140"/>
<path d="M97.4476 31.7456C97.661 31.4514 97.7745 31.1356 97.9193 30.8388C98.4144 29.8264 98.9043 28.8114 99.3844 27.7924C99.4712 27.6078 99.5736 27.5419 99.7771 27.5504C100.189 27.568 100.603 27.5621 101.016 27.5524C101.185 27.5484 101.265 27.5745 101.264 27.7761C101.257 30.1343 101.259 32.4931 101.263 34.8513C101.263 35.0203 101.22 35.079 101.046 35.0712C100.731 35.0575 100.414 35.051 100.101 35.0725C99.8632 35.0888 99.8169 35.002 99.8182 34.7802C99.828 33.3131 99.8234 31.846 99.8234 30.3783C99.8234 30.2739 99.8234 30.1695 99.8234 30.0645L99.7634 30.0469C99.6095 30.3483 99.4523 30.6477 99.3022 30.951C98.9558 31.6503 98.6075 32.3483 98.2735 33.0535C98.207 33.1938 98.1365 33.2486 97.9832 33.244C97.6355 33.2335 97.2872 33.2277 96.9401 33.2459C96.7536 33.2557 96.6772 33.1768 96.6029 33.0228C96.1945 32.1728 95.7757 31.3281 95.3595 30.482C95.2838 30.328 95.2023 30.1774 95.0797 29.9406C95.0712 30.1167 95.0633 30.2048 95.0633 30.2928C95.0627 31.7821 95.0549 33.2707 95.0699 34.76C95.0725 35.0275 94.989 35.0908 94.7437 35.0712C94.4841 35.051 94.2205 35.0477 93.9622 35.0712C93.6954 35.096 93.6178 35.0164 93.6197 34.7391C93.6328 32.8154 93.6269 30.8917 93.6269 28.9679C93.6269 28.5876 93.6373 28.2066 93.623 27.827C93.6152 27.6215 93.6641 27.5387 93.8891 27.5484C94.3125 27.5667 94.7372 27.5654 95.1605 27.5484C95.366 27.5406 95.4613 27.6143 95.548 27.7989C96.1286 29.0351 96.7229 30.2641 97.3139 31.4951C97.3498 31.5701 97.3928 31.6418 97.4476 31.743V31.7456Z" fill="#253140"/>
<path d="M73.6125 22.0779C73.0711 22.0779 72.5401 22.0707 72.0091 22.0818C71.8362 22.0851 71.8206 21.9709 71.7853 21.8607C71.6516 21.4373 71.5101 21.0153 71.3926 20.5873C71.347 20.4223 71.2811 20.3564 71.1056 20.3584C70.3991 20.3668 69.6927 20.3688 68.9862 20.3571C68.8009 20.3538 68.7448 20.4366 68.7018 20.5893C68.5843 21.0061 68.4473 21.4184 68.3364 21.8366C68.2908 22.0101 68.2256 22.089 68.0305 22.0825C67.553 22.0675 67.0748 22.0779 66.5732 22.0779C66.5973 21.7844 66.7278 21.5358 66.8172 21.2801C67.568 19.1326 68.3312 16.9897 69.0808 14.8416C69.1558 14.6269 69.2471 14.533 69.4885 14.5454C69.9223 14.5682 70.3574 14.5545 70.7925 14.55C70.9249 14.5487 71.0039 14.5747 71.0554 14.7228C71.8956 17.126 72.7436 19.526 73.5891 21.9272C73.6028 21.967 73.6021 22.012 73.6119 22.0773L73.6125 22.0779ZM70.043 16.0829C69.7383 17.1065 69.4624 18.0413 69.1806 18.9741C69.1369 19.1183 69.1656 19.1678 69.3215 19.1659C69.8101 19.1594 70.2993 19.1581 70.7879 19.1659C70.9569 19.1685 70.9582 19.0967 70.9197 18.9695C70.6353 18.0387 70.3541 17.1071 70.0436 16.0829H70.043Z" fill="#273241"/>
<path d="M99.9761 16.8775C100.394 16.5826 100.848 16.3876 101.354 16.3608C102.428 16.3034 103.259 16.8814 103.585 17.9349C103.858 18.8182 103.855 19.7093 103.547 20.588C102.99 22.1784 101.339 22.695 99.9702 21.7041C99.8117 21.5893 99.7491 21.5952 99.7341 21.7915C99.7145 22.0433 99.569 22.0994 99.3394 22.0825C99.0165 22.059 98.584 22.1862 98.3961 22.0225C98.1789 21.8339 98.3276 21.3904 98.327 21.059C98.3204 18.8436 98.3309 16.6283 98.3152 14.4136C98.3133 14.1025 98.4085 14.0294 98.6949 14.049C99.0302 14.0725 99.3681 14.0646 99.7041 14.0503C99.8952 14.0424 99.9402 14.1135 99.9382 14.2936C99.9291 15.0425 99.933 15.792 99.9363 16.5415C99.9363 16.6446 99.9063 16.7529 99.9761 16.8775ZM99.9343 19.2605V20.1405C99.9343 20.7896 99.9656 20.8307 100.611 20.9513C100.748 20.9768 100.892 20.98 101.032 20.9781C101.521 20.9716 101.872 20.7335 102.013 20.271C102.214 19.6121 102.212 18.9421 102.014 18.282C101.903 17.9141 101.656 17.6577 101.262 17.5977C100.869 17.5377 100.486 17.5872 100.119 17.7588C99.9806 17.8234 99.9272 17.9023 99.9311 18.055C99.9409 18.4568 99.9343 18.8586 99.9343 19.2605Z" fill="#273241"/>
<path d="M66.5406 35.0679C67.2229 33.1324 67.8883 31.2452 68.553 29.3574C68.7403 28.8264 68.9314 28.2967 69.1082 27.7631C69.161 27.6045 69.236 27.5465 69.4069 27.5517C69.8518 27.5647 70.298 27.5674 70.7423 27.5517C70.9412 27.5445 71.0234 27.615 71.0874 27.7983C71.9034 30.1389 72.726 32.4768 73.5532 34.8129C73.6197 35.0001 73.6243 35.0823 73.3836 35.0731C72.9498 35.0568 72.514 35.0549 72.0809 35.0744C71.8839 35.0829 71.8219 35.002 71.7743 34.835C71.6523 34.4084 71.5049 33.989 71.3868 33.5617C71.3431 33.4038 71.2707 33.3581 71.1154 33.3595C70.4096 33.366 69.7037 33.3679 68.9979 33.3581C68.827 33.3555 68.7487 33.4084 68.7037 33.5734C68.5843 34.0118 68.4389 34.4436 68.3214 34.8827C68.2823 35.0281 68.2197 35.0731 68.0762 35.0712C67.5771 35.0647 67.0781 35.0686 66.5399 35.0686L66.5406 35.0679ZM70.0443 29.0775C69.7383 30.0991 69.4559 31.0469 69.1714 31.9935C69.1323 32.1226 69.1754 32.1696 69.3084 32.1689C69.8068 32.165 70.3046 32.1657 70.8029 32.1689C70.9354 32.1696 70.9712 32.1324 70.9295 31.9967C70.6379 31.0489 70.3528 30.0991 70.0443 29.0775Z" fill="#253140"/>
<path d="M130.833 34.7039C130.833 35.458 130.833 36.1586 130.833 36.8592C130.833 37.2976 130.833 37.3041 130.381 37.295C130.004 37.2872 129.625 37.3335 129.25 37.2676C129.244 36.899 129.233 36.5304 129.233 36.1625C129.232 34.0555 129.236 31.9491 129.228 29.842C129.226 29.602 129.267 29.4793 129.538 29.5198C129.687 29.542 129.843 29.5335 129.993 29.5217C130.344 29.4937 130.681 29.4748 130.657 30.0188C131.111 29.6653 131.56 29.4428 132.08 29.3795C133.193 29.2445 134.08 29.7683 134.449 30.8251C134.782 31.7788 134.778 32.7462 134.412 33.6902C133.859 35.1149 132.391 35.6159 131.071 34.85C131.008 34.8135 130.948 34.7744 130.834 34.7052L130.833 34.7039ZM130.833 32.2857V33.1983C130.833 33.7685 130.852 33.7932 131.415 33.9296C132.271 34.1364 132.838 33.8089 132.99 32.987C133.092 32.4396 133.094 31.8832 132.939 31.3411C132.804 30.8675 132.492 30.6092 132.038 30.5714C131.697 30.5427 131.371 30.6072 131.055 30.7403C130.894 30.8075 130.822 30.8975 130.828 31.0808C130.842 31.482 130.832 31.8845 130.832 32.2863L130.833 32.2857Z" fill="#263241"/>
<path d="M88.9764 29.0032C88.3671 28.8316 87.7754 28.7024 87.1655 28.6789C86.8491 28.6666 86.536 28.6887 86.2366 28.8035C85.9456 28.9144 85.7721 29.1238 85.7486 29.4344C85.7258 29.7351 85.8725 29.953 86.1296 30.0997C86.594 30.3639 87.1113 30.499 87.6052 30.6914C88.0005 30.8454 88.3899 31.0084 88.7285 31.2687C89.6998 32.015 89.7174 33.668 88.7702 34.518C88.2255 35.0073 87.5641 35.1951 86.8602 35.2441C86.0415 35.3008 85.2365 35.201 84.4524 34.942C84.2587 34.8781 84.1693 34.7907 84.1856 34.5761C84.2091 34.2636 84.0832 33.8278 84.243 33.668C84.4178 33.4938 84.8132 33.7606 85.1191 33.8024C85.7316 33.8859 86.3409 34.0059 86.9626 33.895C87.596 33.7822 87.9248 33.319 87.7558 32.7952C87.6776 32.5525 87.4916 32.4227 87.2829 32.3327C86.8563 32.1481 86.4179 31.9896 85.9874 31.8141C85.7375 31.7117 85.4864 31.6086 85.2463 31.4846C84.3996 31.0469 84.0304 30.3307 84.1093 29.3972C84.1869 28.4767 84.7186 27.8746 85.5673 27.5798C86.6593 27.2008 87.7487 27.341 88.8224 27.6978C88.9314 27.7337 88.9796 27.7898 88.9777 27.9079C88.9724 28.2654 88.9757 28.6228 88.9757 29.0045L88.9764 29.0032Z" fill="#263241"/>
<path d="M51.4873 28.7383C52.4502 28.7377 53.278 28.8153 54.0843 29.069C54.5122 29.2034 54.7438 29.4741 54.7353 29.9249C54.687 32.5623 53.837 34.8729 51.9361 36.7516C51.9133 36.7744 51.8872 36.7947 51.8624 36.8155C51.6843 36.9682 51.4775 37.1352 51.2531 36.9891C51.0157 36.8338 51.169 36.5963 51.2446 36.4013C51.758 35.0764 52.2936 33.7593 52.5539 32.3536C52.6145 32.0248 52.668 31.6947 52.6113 31.3522C52.5571 31.0241 52.3797 30.8251 52.0803 30.7155C51.6563 30.5609 51.2127 30.5179 50.7678 30.5048C49.5707 30.4696 48.3828 30.5949 47.1956 30.7299C47.0018 30.7521 46.8055 30.7756 46.6117 30.7671C46.3652 30.7566 46.2764 30.5779 46.3906 30.3568C46.4682 30.2061 46.6026 30.1134 46.7389 30.0228C47.8218 29.3032 49.0352 28.9647 50.3092 28.8094C50.7404 28.7566 51.1735 28.7207 51.4867 28.737L51.4873 28.7383Z" fill="#FE9903"/>
<path d="M118.577 29.5237C117.859 30.3554 117.194 31.1402 116.508 31.9067C116.33 32.1063 116.314 32.2198 116.5 32.4312C117.247 33.2786 117.969 34.1475 118.752 35.0679C118.284 35.0679 117.866 35.032 117.457 35.077C116.957 35.1325 116.643 34.9472 116.352 34.546C115.878 33.8904 115.341 33.2799 114.763 32.6686V34.4397C114.763 34.8585 114.557 35.0679 114.146 35.0679C113.896 35.0679 113.646 35.0562 113.397 35.0718C113.219 35.0829 113.182 35.0164 113.183 34.8507C113.187 32.3183 113.188 29.7866 113.183 27.2542C113.183 27.0755 113.241 27.0363 113.406 27.0416C113.764 27.0527 114.124 27.0592 114.481 27.0396C114.708 27.0272 114.771 27.0911 114.77 27.3227C114.758 28.7135 114.764 30.1049 114.764 31.4957V31.7553C114.89 31.7814 114.913 31.6732 114.961 31.6151C115.478 30.9849 115.993 30.3548 116.5 29.7175C116.611 29.5785 116.724 29.5139 116.907 29.5185C117.438 29.5315 117.971 29.5231 118.578 29.5231L118.577 29.5237Z" fill="#24303F"/>
<path d="M121.776 17.0746C122.279 16.721 122.818 16.4568 123.435 16.3805C123.763 16.34 124.087 16.3465 124.405 16.4274C125.021 16.5833 125.424 17.1111 125.433 17.845C125.451 19.1803 125.435 20.5163 125.443 21.8523C125.444 22.0506 125.366 22.0865 125.193 22.0812C124.846 22.0708 124.497 22.063 124.15 22.0832C123.901 22.0975 123.817 22.0336 123.821 21.7655C123.838 20.68 123.829 19.5932 123.827 18.5077C123.827 17.7582 123.471 17.4731 122.726 17.6199C122.662 17.6323 122.597 17.6434 122.535 17.6597C121.93 17.8202 121.872 17.8952 121.872 18.5169C121.872 19.6134 121.867 20.7107 121.876 21.8073C121.878 22.0173 121.827 22.0936 121.608 22.0825C121.239 22.0643 120.869 22.0695 120.5 22.0812C120.325 22.0871 120.28 22.0238 120.281 21.8575C120.285 20.1523 120.287 18.4471 120.28 16.7425C120.279 16.5631 120.343 16.5175 120.506 16.5305C120.647 16.5416 120.789 16.5331 120.93 16.5331C121.34 16.5331 121.622 16.7136 121.775 17.0746H121.776Z" fill="#263140"/>
<path d="M96.8488 19.9344C96.8488 20.5645 96.8423 21.1947 96.8527 21.8242C96.856 22.0192 96.8051 22.0995 96.5983 22.0825C96.3824 22.0649 96.1632 22.0662 95.9473 22.0819C95.7065 22.0988 95.5317 22.0714 95.5011 21.7726C95.4789 21.5548 95.3608 21.6918 95.2825 21.7459C94.7672 22.1034 94.2101 22.2991 93.5714 22.2306C92.8095 22.149 92.257 21.6931 92.1135 21.0055C91.9432 20.1888 92.2302 19.4947 92.908 19.1105C93.5571 18.7425 94.257 18.7504 94.9648 18.858C95.3673 18.9193 95.3667 18.9272 95.3667 18.5168C95.3667 17.7275 95.1149 17.4998 94.3125 17.5462C93.758 17.5781 93.2114 17.6544 92.6817 17.8214C92.5016 17.8782 92.4155 17.8612 92.4416 17.6492C92.4507 17.5742 92.4429 17.4972 92.4429 17.4216C92.4429 16.7562 92.4409 16.749 93.0757 16.5768C93.8043 16.3791 94.5434 16.2963 95.2982 16.4013C96.34 16.5468 96.8299 17.0882 96.8468 18.1424C96.8566 18.7393 96.8488 19.3368 96.8488 19.9344ZM95.3745 20.2762C95.2753 20.1314 95.5135 19.8606 95.2616 19.8006C94.8305 19.6982 94.379 19.6512 93.9498 19.8359C93.6889 19.9481 93.5975 20.1836 93.5897 20.4451C93.5825 20.6924 93.6432 20.9279 93.8793 21.0616C94.2805 21.2886 94.6517 21.1262 95.0268 20.9637C95.3406 20.8281 95.4332 20.5997 95.3745 20.2755V20.2762Z" fill="#273341"/>
<path d="M121.972 32.6895C121.494 32.6895 121.015 32.6947 120.537 32.6869C120.354 32.6836 120.288 32.7293 120.324 32.9289C120.43 33.5036 120.736 33.8363 121.308 33.9602C122.009 34.1122 122.693 33.9909 123.369 33.8174C123.585 33.7619 123.668 33.7808 123.637 34.0183C123.625 34.1142 123.635 34.214 123.635 34.3112C123.635 34.8781 123.637 34.8839 123.099 35.0359C122.357 35.2453 121.603 35.306 120.844 35.1566C119.782 34.9479 119.148 34.2994 118.919 33.2446C118.793 32.6634 118.782 32.0763 118.888 31.4964C119.156 30.0306 120.268 29.2256 121.795 29.3658C123.021 29.4787 123.696 30.1832 123.758 31.4168C123.775 31.7429 123.737 32.0665 123.715 32.3914C123.696 32.6653 123.571 32.7006 123.342 32.6934C122.886 32.679 122.429 32.6895 121.972 32.6895ZM121.367 31.6862C121.649 31.6862 121.93 31.6842 122.212 31.6875C122.321 31.6888 122.384 31.6771 122.398 31.5361C122.459 30.8838 122.05 30.4402 121.398 30.4722C120.797 30.5015 120.365 30.9197 120.305 31.5172C120.292 31.6477 120.326 31.6908 120.456 31.6881C120.76 31.6816 121.063 31.6862 121.367 31.6862Z" fill="#273342"/>
<path d="M153.194 32.6895C152.727 32.6895 152.259 32.7019 151.792 32.6843C151.548 32.6751 151.529 32.7599 151.577 32.9693C151.711 33.5604 151.992 33.8441 152.59 33.9668C153.292 34.1109 153.974 33.9752 154.65 33.8095C154.842 33.7626 154.905 33.7848 154.882 33.985C154.871 34.0816 154.88 34.1807 154.88 34.2779C154.88 34.8885 154.882 34.8963 154.281 35.0536C153.537 35.248 152.783 35.3054 152.025 35.1436C151.004 34.9263 150.398 34.2877 150.165 33.2838C150.007 32.606 150.014 31.9263 150.177 31.2517C150.486 29.9653 151.616 29.2282 153.052 29.3678C154.286 29.4878 154.991 30.2608 154.999 31.5009C155.001 31.8271 154.984 32.1507 154.94 32.4749C154.918 32.6412 154.856 32.6947 154.693 32.6921C154.193 32.6843 153.693 32.6895 153.193 32.6895H153.194ZM152.564 31.6862C152.856 31.6862 153.149 31.6882 153.441 31.6849C153.52 31.6842 153.603 31.7123 153.631 31.5766C153.74 31.0723 153.384 30.5466 152.874 30.4826C152.193 30.3972 151.698 30.7612 151.559 31.4409C151.524 31.6138 151.542 31.7025 151.752 31.6901C152.021 31.6738 152.293 31.6862 152.564 31.6862H152.564Z" fill="#273342"/>
<path d="M82.8646 21.5978C82.241 22.0682 81.6259 22.3154 80.8998 22.2273C80.2096 22.1438 79.6897 21.7263 79.5116 21.0812C79.3146 20.3675 79.5384 19.6434 80.0909 19.2409C80.7856 18.7347 81.5717 18.7419 82.3708 18.8619C82.759 18.9206 82.7577 18.9304 82.7544 18.5345C82.7544 18.5234 82.7544 18.5129 82.7544 18.5018C82.742 17.7321 82.4856 17.4953 81.71 17.5416C81.1451 17.5749 80.5867 17.6538 80.0459 17.8267C79.8822 17.8789 79.8208 17.8619 79.8137 17.6649C79.7797 16.7555 79.7928 16.7223 80.6982 16.5174C81.4563 16.3459 82.2234 16.2689 82.9886 16.462C83.7929 16.6655 84.2091 17.1782 84.2189 18.0061C84.2345 19.2886 84.2189 20.571 84.228 21.8535C84.2293 22.0499 84.1582 22.0949 83.9827 22.0819C83.8099 22.0688 83.6337 22.0655 83.4615 22.0819C83.1262 22.1145 82.8464 22.0858 82.864 21.5985L82.8646 21.5978ZM82.0251 19.7295C81.8085 19.7289 81.5919 19.7204 81.3858 19.8091C81.1046 19.9298 80.9735 20.1522 80.9683 20.4471C80.9637 20.7074 81.0361 20.9422 81.2827 21.0799C81.6343 21.2769 82.4915 21.0746 82.7166 20.7439C82.7394 20.7106 82.7498 20.6656 82.757 20.6245C82.8933 19.8626 82.7942 19.7419 82.0244 19.7295H82.0251Z" fill="#263241"/>
<path d="M105.895 34.6354C105.483 34.957 105.011 35.1971 104.466 35.2368C103.774 35.2877 103.148 35.1142 102.775 34.4873C102.417 33.8852 102.417 33.2355 102.804 32.636C103.161 32.0828 103.73 31.8734 104.358 31.8095C104.782 31.7658 105.206 31.8043 105.623 31.8858C105.781 31.9171 105.821 31.8864 105.83 31.7221C105.882 30.7429 105.705 30.5537 104.719 30.557C104.182 30.5589 103.662 30.6653 103.151 30.8179C102.981 30.8682 102.879 30.8616 102.91 30.6444C102.919 30.5805 102.911 30.5139 102.911 30.4487C102.911 29.7481 102.91 29.7455 103.58 29.5622C104.312 29.3626 105.055 29.3058 105.807 29.3984C106.714 29.51 107.259 30.0214 107.293 30.9243C107.341 32.2485 107.31 33.5753 107.317 34.9015C107.318 35.0275 107.279 35.0725 107.151 35.0699C106.836 35.0627 106.521 35.0646 106.205 35.0685C105.89 35.0718 106.059 34.7554 105.893 34.6354H105.895ZM105.826 33.3451C105.826 33.1729 105.825 33.0535 105.826 32.9341C105.826 32.8526 105.817 32.7932 105.71 32.7788C105.311 32.726 104.911 32.6627 104.516 32.7893C104.255 32.8728 104.098 33.0594 104.062 33.3314C104.028 33.6008 104.058 33.8696 104.304 34.0313C104.689 34.2844 105.071 34.1435 105.448 33.9785C105.754 33.8441 105.917 33.6412 105.825 33.3451H105.826Z" fill="#263140"/>
<path d="M142.491 34.5872C142.06 34.9179 141.645 35.139 141.161 35.2167C140.133 35.3824 139.261 34.8501 139.095 33.9472C138.909 32.94 139.476 32.107 140.505 31.8715C141.056 31.7456 141.606 31.7815 142.153 31.8871C142.335 31.9224 142.369 31.8721 142.377 31.7019C142.422 30.7677 142.229 30.559 141.302 30.5564C140.754 30.5544 140.223 30.6542 139.703 30.816C139.486 30.8839 139.403 30.8317 139.437 30.6047C139.442 30.5727 139.438 30.5394 139.438 30.5068C139.438 29.7273 139.435 29.7162 140.181 29.5407C140.968 29.3561 141.765 29.2687 142.566 29.45C143.379 29.6346 143.825 30.1552 143.837 30.9921C143.856 32.2844 143.841 33.5773 143.846 34.8696C143.847 35.0249 143.805 35.0816 143.646 35.0705C143.462 35.0582 143.277 35.0601 143.092 35.0692C142.766 35.0856 142.437 35.1169 142.49 34.5865L142.491 34.5872ZM142.358 33.2029C142.302 33.1116 142.524 32.8513 142.259 32.7906C141.859 32.6993 141.443 32.6562 141.039 32.7926C140.752 32.8898 140.606 33.1077 140.588 33.4064C140.571 33.6824 140.638 33.9381 140.9 34.0712C141.315 34.2812 141.694 34.109 142.075 33.9335C142.384 33.7913 142.42 33.5506 142.358 33.2023V33.2029Z" fill="#263140"/>
<path d="M111.258 19.6865C110.77 19.6865 110.28 19.693 109.792 19.6832C109.625 19.68 109.594 19.7354 109.615 19.8907C109.699 20.5019 110.072 20.8757 110.691 20.9833C111.372 21.1021 112.032 20.982 112.685 20.8183C112.902 20.7641 112.938 20.8059 112.941 21.0153C112.952 21.9227 112.96 21.9286 112.058 22.1223C111.427 22.258 110.789 22.2834 110.151 22.1615C109.115 21.9638 108.478 21.3421 108.232 20.3232C108.066 19.6369 108.067 18.9441 108.237 18.2592C108.566 16.9284 109.77 16.1704 111.205 16.3772C112.391 16.5481 113.018 17.2572 113.057 18.4653C113.067 18.7915 113.04 19.1144 113.005 19.4386C112.983 19.6323 112.92 19.6963 112.724 19.6911C112.235 19.678 111.746 19.6865 111.258 19.6865H111.258ZM110.61 18.6969C110.902 18.6969 111.194 18.6897 111.486 18.7002C111.637 18.7054 111.685 18.6643 111.69 18.5045C111.716 17.766 111.228 17.3433 110.509 17.4972C110.002 17.6055 109.664 17.9891 109.603 18.5103C109.588 18.6467 109.614 18.7054 109.766 18.7002C110.047 18.6897 110.329 18.6969 110.61 18.6969H110.61Z" fill="#253140"/>
<path d="M79.0094 16.5331C78.7093 17.3309 78.4216 18.0987 78.132 18.8652C77.7562 19.858 77.3733 20.8483 77.008 21.845C76.9388 22.0336 76.8475 22.091 76.6564 22.0825C76.3198 22.0675 75.9825 22.0688 75.6459 22.0825C75.4685 22.0897 75.3765 22.0394 75.3113 21.8646C74.6765 20.1705 74.0373 18.4783 73.3856 16.7901C73.2903 16.5435 73.3719 16.5239 73.5813 16.5298C73.9505 16.5409 74.321 16.5494 74.6896 16.5272C74.929 16.5128 75.0242 16.597 75.0869 16.824C75.4039 17.9734 75.7385 19.1183 76.068 20.2638C76.0915 20.346 76.1215 20.4262 76.1704 20.5736C76.4529 19.6121 76.7164 18.7132 76.9806 17.8142C77.0876 17.4502 77.1998 17.0882 77.2983 16.7216C77.3302 16.6029 77.3635 16.5285 77.5064 16.5298C77.9943 16.5357 78.4829 16.5324 79.01 16.5324L79.0094 16.5331Z" fill="#263140"/>
<path d="M125.133 32.2374C125.133 31.803 125.126 31.3685 125.137 30.9347C125.142 30.7573 125.099 30.6946 124.908 30.6933C124.306 30.6888 124.323 30.679 124.298 30.0854C124.286 29.7853 124.374 29.675 124.678 29.6378C125.186 29.5759 125.182 29.5517 125.265 29.0344C125.306 28.7774 125.355 28.5217 125.385 28.2634C125.403 28.1003 125.448 28.0083 125.641 28.0194C125.933 28.0357 126.228 28.0357 126.52 28.0194C126.719 28.0083 126.753 28.0925 126.747 28.266C126.736 28.613 126.753 28.9607 126.74 29.3078C126.734 29.4774 126.784 29.5341 126.957 29.5276C127.304 29.5146 127.652 29.5309 128 29.5204C128.169 29.5152 128.269 29.542 128.247 29.7448C128.214 30.054 128.378 30.4578 128.179 30.6483C128.023 30.797 127.623 30.6959 127.332 30.6972C126.744 30.7005 126.744 30.6979 126.744 31.2889C126.744 31.9406 126.738 32.5916 126.747 33.2433C126.753 33.741 126.918 33.895 127.422 33.9035C127.52 33.9054 127.618 33.9054 127.715 33.9035C128.082 33.8948 128.266 34.08 128.266 34.4593C128.266 34.974 128.266 34.9759 127.762 35.0757C127.268 35.1736 126.769 35.1971 126.277 35.0796C125.625 34.9237 125.278 34.5238 125.186 33.8624C125.165 33.7123 125.144 33.5603 125.143 33.4097C125.137 33.0189 125.141 32.6282 125.141 32.2374C125.138 32.2374 125.136 32.2374 125.133 32.2374Z" fill="#263241"/>
<path d="M149.314 30.2648C149.314 30.6109 149.147 30.7557 148.815 30.6992C148.428 30.634 148.043 30.5968 147.651 30.6816C147.164 30.7873 146.864 31.0802 146.746 31.5531C146.621 32.0561 146.618 32.5662 146.754 33.0672C146.908 33.638 147.315 33.927 147.965 33.9583C148.36 33.9772 148.747 33.9159 149.124 33.8135C149.318 33.7606 149.351 33.8154 149.337 33.9857C149.328 34.0933 149.335 34.2029 149.335 34.3112C149.335 34.9198 149.334 34.9172 148.721 35.0744C148.154 35.2199 147.582 35.2356 147.011 35.1207C146.105 34.9387 145.486 34.4136 145.213 33.5212C144.983 32.7671 144.974 31.9993 145.186 31.2413C145.593 29.7872 146.869 29.2752 148.241 29.4226C148.413 29.4409 148.584 29.4813 148.751 29.5263C149.314 29.6777 149.313 29.6803 149.313 30.2648H149.314Z" fill="#263241"/>
<path d="M88.8864 17.4313C88.8864 16.3993 88.8936 15.3673 88.8812 14.3353C88.8786 14.1057 88.9419 14.0359 89.1702 14.049C89.5166 14.0685 89.8662 14.0698 90.2126 14.049C90.4468 14.0346 90.4938 14.1155 90.4931 14.3373C90.484 16.2708 90.4879 18.205 90.4879 20.1385C90.4879 20.2253 90.4853 20.3127 90.4892 20.3995C90.5081 20.8091 90.6268 20.9448 91.0261 20.9063C91.3124 20.8789 91.3953 20.9689 91.3496 21.2331C91.3405 21.286 91.3483 21.3414 91.3483 21.3956C91.3483 21.8239 91.1378 22.0703 90.7169 22.1347C89.6307 22.3004 88.9686 21.8157 88.919 20.7217C88.8694 19.6271 88.9079 18.5286 88.9079 17.432C88.9014 17.432 88.8949 17.432 88.8884 17.432L88.8864 17.4313Z" fill="#273341"/>
<path d="M135.886 30.467C135.886 29.4141 135.892 28.3606 135.881 27.3077C135.879 27.0951 135.934 27.0292 136.149 27.0403C136.495 27.0585 136.845 27.0644 137.191 27.039C137.446 27.02 137.494 27.1088 137.493 27.3462C137.483 29.2569 137.487 31.1676 137.487 33.0783C137.487 33.1761 137.483 33.274 137.489 33.3712C137.519 33.8311 137.608 33.9316 138.068 33.8957C138.337 33.8741 138.386 33.9759 138.357 34.2003C138.347 34.2753 138.356 34.3523 138.356 34.428C138.356 35.0438 138.345 35.0614 137.718 35.1253C137.513 35.1462 137.305 35.1475 137.101 35.1305C136.491 35.0797 136.079 34.7072 135.953 34.1103C135.902 33.865 135.885 33.6171 135.886 33.3666C135.888 32.4005 135.887 31.4344 135.887 30.4676L135.886 30.467Z" fill="#273342"/>
<path d="M106.588 17.3505C106.588 18.3394 106.586 19.3284 106.589 20.3167C106.591 20.8301 106.694 20.9377 107.203 20.9051C107.417 20.8914 107.472 20.952 107.449 21.1477C107.436 21.2547 107.446 21.365 107.446 21.4733C107.446 21.8347 107.263 22.0491 106.896 22.1165C106.571 22.1758 106.246 22.1732 105.927 22.0845C105.409 21.941 105.137 21.5724 105.039 21.0662C104.998 20.8542 104.979 20.635 104.979 20.4191C104.974 18.3981 104.981 16.3772 104.97 14.3563C104.969 14.1149 105.025 14.0321 105.274 14.0484C105.621 14.0712 105.97 14.066 106.317 14.0497C106.529 14.0392 106.595 14.1006 106.592 14.3191C106.58 15.3296 106.587 16.34 106.587 17.3505H106.588Z" fill="#273341"/>
<path d="M110.323 30.2791C110.674 29.9536 111.006 29.6392 111.467 29.5244C111.541 29.5061 111.614 29.4872 111.689 29.4755C112.317 29.3789 112.374 29.4272 112.373 30.0534C112.373 30.3352 112.467 30.6829 112.337 30.8812C112.197 31.0939 111.843 30.8826 111.58 30.8995C110.43 30.9713 110.381 31.0117 110.381 32.1311C110.381 33.0216 110.375 33.912 110.386 34.8024C110.389 35.0099 110.341 35.0849 110.121 35.0738C109.742 35.0549 109.361 35.0621 108.981 35.0719C108.824 35.0758 108.776 35.0242 108.777 34.8683C108.781 33.1527 108.781 31.437 108.777 29.7207C108.777 29.5616 108.83 29.5055 108.984 29.5211C109.07 29.5303 109.157 29.5224 109.244 29.5231C109.515 29.525 109.822 29.4481 110.047 29.5511C110.273 29.6549 110.168 30.0228 110.321 30.2785L110.323 30.2791Z" fill="#283442"/>
<path d="M87.356 19.3185C87.356 20.1542 87.3508 20.9892 87.3599 21.8248C87.3618 22.0173 87.3214 22.0936 87.1113 22.0838C86.7323 22.0662 86.352 22.0708 85.9724 22.0825C85.7975 22.0877 85.7512 22.0231 85.7519 21.8574C85.7564 20.1542 85.7571 18.4509 85.7512 16.747C85.7512 16.5748 85.8034 16.5233 85.973 16.5285C86.3527 16.5396 86.733 16.5448 87.112 16.5272C87.3168 16.5174 87.3638 16.5813 87.3612 16.7803C87.3494 17.6264 87.356 18.4725 87.356 19.3192V19.3185Z" fill="#283442"/>
<path d="M117.154 19.2821C117.154 18.4686 117.166 17.6545 117.147 16.8417C117.14 16.5749 117.227 16.5148 117.473 16.5285C117.819 16.5488 118.167 16.5396 118.514 16.5312C118.669 16.5272 118.746 16.5507 118.746 16.7373C118.739 18.451 118.74 20.1653 118.744 21.879C118.744 22.0369 118.69 22.0838 118.537 22.0806C118.157 22.0721 117.777 22.0649 117.398 22.0825C117.185 22.0923 117.149 22.0095 117.151 21.8203C117.159 20.9742 117.155 20.1281 117.155 19.2821H117.154Z" fill="#24303F"/>
<path d="M86.5491 15.687C85.992 15.687 85.6182 15.336 85.6267 14.8213C85.6358 14.2949 85.9842 13.987 86.5693 13.989C87.1257 13.9903 87.4734 14.3106 87.476 14.824C87.4787 15.3406 87.1068 15.687 86.5491 15.687Z" fill="#273342"/>
<path d="M117.942 13.9883C118.52 13.987 118.864 14.3054 118.862 14.839C118.859 15.3478 118.505 15.6798 117.958 15.6864C117.393 15.6935 117.026 15.3608 117.024 14.839C117.021 14.3027 117.36 13.989 117.942 13.9877V13.9883Z" fill="#273341"/>
</g>
<defs>
<clipPath id="clip0_2026_1103">
<rect width="145" height="26.871" fill="white" transform="translate(10 12)"/>
</clipPath>
</defs>
</svg>
